HIERARCHY
ROOT Hips
{
  OFFSET 279.157 85.6768 304.565
  CHANNELS 6 Xposition Yposition Zposition Zrotation Xrotation Yrotation
  JOINT LeftUpLeg
  {
    OFFSET 8.64259 1.95398 -2.38835
    CHANNELS 3 Zrotation Xrotation Yrotation
    JOINT LeftLeg
    {
      OFFSET 43.7702 0 0
      CHANNELS 3 Zrotation Xrotation Yrotation
      JOINT LeftFoot
      {
        OFFSET 40.6238 0 0
        CHANNELS 3 Zrotation Xrotation Yrotation
        JOINT LeftToeBase
        {
          OFFSET 12.7242 0 0
          CHANNELS 3 Zrotation Xrotation Yrotation
          End Site
          {
            OFFSET 0 0 0
          }
        }
      }
    }
  }
  JOINT RightUpLeg
  {
    OFFSET -8.2249 1.95398 -2.59336
    CHANNELS 3 Zrotation Xrotation Yrotation
    JOINT RightLeg
    {
      OFFSET 43.5653 0 0
      CHANNELS 3 Zrotation Xrotation Yrotation
      JOINT RightFoot
      {
        OFFSET 40.6238 0 0
        CHANNELS 3 Zrotation Xrotation Yrotation
        JOINT RightToeBase
        {
          OFFSET 12.7242 0 0
          CHANNELS 3 Zrotation Xrotation Yrotation
          End Site
          {
            OFFSET 0 0 0
          }
        }
      }
    }
  }
  JOINT Spine
  {
    OFFSET 0.165834 0.87714 6.61349
    CHANNELS 3 Zrotation Xrotation Yrotation
    JOINT Spine1
    {
      OFFSET 7.38963 1.71661e-005 0
      CHANNELS 3 Zrotation Xrotation Yrotation
      JOINT Spine2
      {
        OFFSET 11.9445 1.14441e-005 0
        CHANNELS 3 Zrotation Xrotation Yrotation
        JOINT Spine3
        {
          OFFSET 14.7254 4.19617e-005 0
          CHANNELS 3 Zrotation Xrotation Yrotation
          JOINT Spine4
          {
            OFFSET 10.9679 0 0
            CHANNELS 3 Zrotation Xrotation Yrotation
            JOINT RightShoulder
            {
              OFFSET 2.46616 -1.6653 3.69651
              CHANNELS 3 Zrotation Xrotation Yrotation
              JOINT RightArm
              {
                OFFSET 13.0012 0 0
                CHANNELS 3 Zrotation Xrotation Yrotation
                JOINT RightForeArm
                {
                  OFFSET 28.7848 1.52588e-005 0
                  CHANNELS 3 Zrotation Xrotation Yrotation
                  JOINT RightHand
                  {
                    OFFSET 26.5688 1.52588e-005 0
                    CHANNELS 3 Zrotation Xrotation Yrotation
                    End Site
                    {
                      OFFSET 0 0 0
                    }
                  }
                }
              }
            }
            JOINT LeftShoulder
            {
              OFFSET 2.38034 -1.29275 -3.7523
              CHANNELS 3 Zrotation Xrotation Yrotation
              JOINT LeftArm
              {
                OFFSET 16.3182 6.10351e-005 0
                CHANNELS 3 Zrotation Xrotation Yrotation
                JOINT LeftForeArm
                {
                  OFFSET 27.0901 0 0
                  CHANNELS 3 Zrotation Xrotation Yrotation
                  JOINT LeftHand
                  {
                    OFFSET 24.5451 1.52588e-005 0
                    CHANNELS 3 Zrotation Xrotation Yrotation
                    End Site
                    {
                      OFFSET 0 0 0
                    }
                  }
                }
              }
            }
            JOINT Neck
            {
              OFFSET 5.0226 -0.0266342 0
              CHANNELS 3 Zrotation Xrotation Yrotation
              JOINT Head
              {
                OFFSET 6.69364 2.86102e-005 0
                CHANNELS 3 Zrotation Xrotation Yrotation
                End Site
                {
                  OFFSET 0 0 0
                }
              }
            }
          }
        }
      }
    }
  }
}
MOTION
Frames:	12
Frame Time:	0.0416667
38.0019 97.0132 -157.985 -27.1607 -87.5251 -28.438 -178.743 31.5086 93.4569 -28.6805 15.703 1.27216 65.2802 3.14589 -1.53585 21.3092 -5.344 4.13507 175.93 -10.0773 92.502 -51.0617 -21.7889 -3.15246 61.8837 -1.41775 -1.43243 21.679 0.82796 8.28688 1.39267 7.58213 -89.5675 11.7074 2.97308 0.551002 0.0398256 2.99444 0.419496 -22.5177 2.66995 1.41963 -2.50505 2.66996 1.41964 90.1362 -24.7794 -108.611 38.2838 -11.5195 -1.7171 -35.9432 -2.78168 -85.6534 -27.2917 1.80684 -22.3216 -88.3935 -46.1649 80.3852 -21.2195 28.5092 27.1733 52.9535 -12.7486 -89.2805 5.57473 -1.40062 -23.0726 26.2262 -9.7658 -11.9227 -15.7032 -5.64096 5.21861 
38.9054 95.8511 -147.036 -82.2896 -86.725 -85.2814 -176.884 28.621 91.3856 -39.8373 11.0455 1.02491 67.377 4.88774 0.713945 27.5227 -0.247325 -1.76767 172.789 0.983303 89.0937 -68.1806 -8.67329 -2.19925 65.598 -3.67351 -2.21313 20.6396 0.64715 10.6095 0.760842 7.58053 -89.4628 11.7061 1.76543 0.885677 0.0360602 1.8027 0.807093 -22.5034 1.41764 1.37535 -2.49077 1.41764 1.37534 90.3389 -28.6496 -106.601 41.9559 -17.2013 7.95402 -40.1707 -15.4083 -73.5885 -26.679 0.740742 -20.4769 -89.5155 -51.6524 79.7886 -18.7882 22.9304 12.3615 47.6747 -6.65047 -87.4147 6.4917 -1.52447 -22.7134 21.0872 -5.95097 -14.8345 -11.3131 -1.54707 7.33212 
38.4761 95.447 -137.248 -114.496 -84.4159 -121.345 -173.461 19.1824 88.6088 -41.6573 10.0761 -0.936488 75.8821 10.9438 -0.280744 27.3539 -1.0488 1.07073 172.237 13.3951 87.2419 -79.387 1.34409 -2.50312 71.6714 -8.00066 -5.65124 16.927 2.52752 6.5591 -0.0399668 7.93542 -89.1458 10.9975 0.316234 1.6681 -0.674437 0.389333 1.65256 -23.2012 -0.199641 1.68603 -3.18858 -0.199644 1.68602 91.2788 -29.051 -104.545 44.5952 -8.87068 18.3476 -43.4703 -24.323 -71.1064 -23.4387 0.00851069 -21.3682 -90.4011 -55.0798 79.1935 -10.5121 18.566 -10.2832 48.1976 -4.9685 -87.9095 5.20647 -1.15255 -20.3429 22.615 -1.83384 -12.1526 -10.8988 1.94518 4.95147 
38.3387 96.048 -126.942 -107.909 -80.7939 -113.044 -171.793 10.0972 91.2966 -39.8999 9.85963 -1.08966 77.1373 12.8209 2.41526 35.2909 3.24365 1.44135 174.318 23.7581 91.2689 -77.6192 0.451853 -2.04945 73.39 -8.97873 -5.45164 16.1406 2.51319 7.58005 -0.532502 7.82306 -89.3523 11.2331 -0.758223 1.36729 -0.438383 -0.69731 1.39931 -22.9714 -1.13408 1.07623 -2.95878 -1.13408 1.07624 93.0925 -26.9385 -101.516 45.7547 -1.70014 27.6045 -35.1053 -22.8037 -64.6079 -21.8103 0.653213 -23.7832 -89.3677 -49.8246 79.6463 -8.32154 11.665 -23.1181 47.7626 -4.86937 -89.2257 6.42276 -1.34172 -20.5261 19.3262 3.26328 -8.73373 -9.97121 5.6385 3.39438 
37.3464 98.3656 -115.818 -107.616 -76.1 -112.519 -170.422 -0.757278 90.303 -33.5074 9.93392 -1.85526 66.15 4.96384 2.60059 49.5529 10.6265 1.89266 175.75 26.1796 94.1062 -62.0043 0.485547 -0.884246 73.1983 -8.12936 -4.44398 16.2273 2.5013 7.51563 -0.997511 7.73816 -89.5199 11.4061 -1.76067 1.13326 -0.264268 -1.70911 1.20966 -22.8077 -2.01984 0.551564 -2.79501 -2.01984 0.551562 93.8615 -24.2271 -100.732 43.4642 0.181459 34.7767 -35.8591 -22.6022 -64.1736 -20.9448 0.838031 -26.3088 -86.9009 -43.313 82.2071 -7.81761 5.8951 -22.694 45.7826 -8.59687 -93.6205 6.57148 -1.4865 -22.0275 15.9072 9.34247 -1.58779 -9.70877 9.50929 0.204165 
35.6213 100.183 -104.115 -107.852 -72.4946 -112.781 -170.953 -5.97905 92.0814 -33.9319 14.7876 -0.903902 52.6922 -5.83104 -2.36451 46.5622 9.2772 -3.90561 176.902 22.0199 96.4048 -37.9771 -1.20588 1.03171 67.2129 -4.75953 -2.56705 19.6888 1.53635 7.50454 -1.17298 7.65086 -89.6104 11.5827 -2.15091 0.998483 -0.0869102 -2.10488 1.0922 -22.6359 -2.35151 0.305569 -2.62321 -2.35151 0.305572 93.2765 -22.0598 -102.803 42.438 0.920946 41.9778 -32.1005 -23.3242 -62.8076 -23.6589 1.56699 -27.0201 -85.3223 -36.5877 83.6374 -7.84017 2.58582 -19.5024 47.1959 -11.1602 -97.0265 3.28615 -1.08014 -24.1947 12.653 12.9617 2.97208 -9.7086 12.0746 -2.09407 
33.8216 99.993 -92.6664 -107.677 -71.5303 -113.441 -171.69 -4.895 92.2213 -44.7363 26.6706 1.20664 52.9925 -5.53248 -2.65388 30.093 0.655238 0.393759 178.286 16.3217 97.4724 -15.7171 -9.29256 1.31636 58.6512 -0.345283 0.643727 22.0104 0.902623 7.45435 -1.10427 7.46589 -89.5694 11.9528 -1.99266 1.07349 0.282869 -1.9435 1.16017 -22.2638 -2.22314 0.424755 -2.25114 -2.22313 0.424754 93.1963 -19.2757 -104.082 45.6543 0.704148 48.1859 -29.3754 -20.0717 -62.0925 -22.3942 1.83164 -28.2074 -84.1919 -34.3607 85.2826 -3.66989 5.46313 -19.1703 46.6673 -13.4336 -98.2424 1.60227 -0.831903 -25.5713 7.33868 13.3799 4.2575 -6.53007 12.3883 -2.77095 
31.6923 98.3371 -82.1537 -114.624 -72.3387 -122.683 -171.531 -0.991438 93.3885 -56.3629 22.1704 2.25176 56.8923 -3.00156 -2.09613 36.0156 3.82214 -0.197037 179.346 14.407 96.4699 -13.4532 -18.3487 0.00666399 55.5323 1.65837 0.436403 20.505 1.42206 6.8886 -1.00079 7.44411 -89.2237 11.9989 -1.62328 1.72732 0.327748 -1.5457 1.79707 -22.2108 -2.06733 1.15959 -2.19818 -2.06734 1.15959 92.9806 -19.2628 -104.611 50.2486 -0.603851 51.1882 -28.9518 -17.9057 -62.6848 -23.0711 2.18848 -28.8929 -85.2328 -36.6547 83.8166 -2.35707 6.17795 -14.277 46.6024 -16.0537 -100.434 2.74513 -0.95308 -23.4635 4.61702 11.8074 1.8992 -4.99477 11.3448 -2.30274 
29.754 95.4608 -72.0987 -126.6 -72.1653 -135.699 -171.352 5.29878 95.4274 -66.9518 10.7457 3.21777 61.4225 0.375844 1.30758 32.6886 2.67682 -3.4273 177.687 16.9272 96.7152 -33.1894 -23.014 0.0167149 63.919 -2.72267 -4.7722 4.75557 5.7054 7.88755 -0.762179 7.65638 -89.0532 11.5647 -1.07302 1.99833 -0.107438 -0.984054 2.04358 -22.6375 -1.62393 1.58359 -2.62488 -1.62392 1.58359 91.9886 -22.1182 -105.702 49.9797 -0.612428 49.7915 -32.6165 -20.572 -65.3949 -27.7798 2.62984 -28.2745 -86.5598 -41.9106 82.5112 -2.57787 6.85555 -5.96056 47.2655 -17.5523 -101.769 2.9753 -1.07059 -25.0314 4.09932 9.67088 1.14362 -3.59048 9.36605 -3.34037 
27.95 92.9696 -64.0229 -126.449 -72.8183 -131.992 -173.794 18.2853 99.6549 -73.1563 3.91877 5.10203 68.1983 5.87731 4.6258 25.0087 -0.69309 -5.01198 177.653 19.1759 102.112 -46.9894 -20.2228 0.822452 71.4258 -8.82562 -8.90534 3.0161 6.32355 7.55361 -0.29454 7.88173 -89.6208 11.1112 -0.410205 0.79453 -0.559881 -0.374835 0.811803 -23.0942 -0.630039 0.634519 -3.08155 -0.630019 0.63452 93.8126 -24.749 -100.673 48.1782 -7.31826 36.4012 -35.4016 -18.3209 -67.4444 -26.2852 2.12004 -27.3375 -85.4366 -48.0203 85.303 -7.41033 8.49665 -0.397779 47.6871 -14.5582 -98.0768 4.46799 -1.14293 -21.8429 11.2199 8.03891 1.38787 -6.14153 7.65762 -3.66083 
25.7054 92.256 -55.4779 -124.16 -71.3247 -129.785 -177.854 24.7729 98.4655 -68.8417 2.1878 6.01195 72.9143 8.67089 4.32993 20.9646 -2.93826 -4.09937 178.431 14.0434 102.669 -51.1577 -21.229 0.0397252 77.0564 -13.353 -9.57251 7.11691 5.06895 7.66905 0.0606889 8.05042 -89.7728 10.7725 0.225638 0.430238 -0.898504 0.244375 0.41987 -23.4334 0.0858929 0.478168 -3.42074 0.0859064 0.478159 93.8374 -25.8709 -100.264 42.1839 -12.8305 19.7645 -43.9353 -15.2861 -73.851 -25.18 0.711379 -22.729 -86.1156 -54.8649 85.2509 -12.4248 2.82748 15.1734 48.4361 -12.8632 -98.2902 1.51282 -0.787483 -24.5348 14.1741 6.49549 2.41986 -7.08983 5.8758 -4.17327 
22.7891 93.0001 -46.4031 -121.738 -69.0101 -129.627 179.614 24.4865 94.973 -55.083 7.86803 6.17106 71.8958 8.41495 3.98385 21.7992 -2.52692 -4.19701 177.762 5.71425 99.8531 -50.6305 -22.0866 -0.688457 79.4114 -14.3823 -8.28291 9.17178 3.86901 9.56586 0.879302 8.04021 -89.4199 10.7872 2.01888 0.970238 -0.88262 2.05962 0.880407 -23.423 1.63396 1.5322 -3.41032 1.63397 1.5322 92.7194 -24.1165 -103.288 42.7303 -12.5868 12.8128 -40.9334 -9.99315 -79.9138 -26.2976 1.18847 -22.2981 -84.5698 -54.1815 87.3888 -17.3794 5.85097 26.2224 47.645 -15.72 -99.5637 3.59083 -1.12808 -24.1386 11.7359 2.7696 2.28201 -6.17044 2.39863 -6.5218 
